<svg height="480pt" viewBox="0 0 480 480" width="480pt" xmlns="http://www.w3.org/2000/svg"><path d="m472 240c0 128.128906-103.871094 232-232 232s-232-103.871094-232-232 103.871094-232 232-232 232 103.871094 232 232zm0 0" fill="#9bc9ff"/><g fill="#1e81ce"><path d="m240 480c-132.546875 0-240-107.453125-240-240s107.453125-240 240-240 240 107.453125 240 240c-.148438 132.484375-107.515625 239.851562-240 240zm0-464c-123.710938 0-224 100.289062-224 224s100.289062 224 224 224 224-100.289062 224-224c-.140625-123.652344-100.347656-223.859375-224-224zm0 0"/><path d="m205.824219 309.824219c-2.121094 0-4.15625-.84375-5.65625-2.34375l-67.878907-67.878907c-3.03125-3.140624-2.988281-8.128906.097657-11.214843 3.085937-3.085938 8.074219-3.128907 11.214843-.097657l62.222657 62.222657 130.105469-130.113281c2.007812-2.078126 4.980468-2.914063 7.777343-2.179688 2.796875.730469 4.984375 2.917969 5.714844 5.714844s-.101563 5.769531-2.183594 7.777344l-135.757812 135.769531c-1.5 1.5-3.535157 2.34375-5.65625 2.34375zm0 0"/></g></svg>