<svg xmlns="http://www.w3.org/2000/svg" height="512pt" version="1.1" viewBox="0 0 512 512.00003" width="512pt">
<g id="surface1">
<path d="M 218.289062 324.21875 L 143.386719 249.316406 L 218.289062 324.21875 L 256 286.507812 L 256 0 C 114.617188 0 0 114.617188 0 256 C 0 397.382812 114.617188 512 256 512 L 256 286.507812 Z M 218.289062 324.21875 " style=" stroke:none;fill-rule:nonzero;fill:rgb(81.960784%,82.745098%,83.137255%);fill-opacity:1;" />
<path d="M 256 0 L 256 286.507812 L 368.109375 174.398438 L 256 286.507812 L 256 512 C 397.382812 512 512 397.382812 512 256 C 512 114.617188 397.382812 0 256 0 Z M 256 0 " style=" stroke:none;fill-rule:nonzero;fill:rgb(90.196078%,90.588235%,90.980392%);fill-opacity:1;" />
<path d="M 218.289062 333.046875 C 215.949219 333.046875 213.703125 332.117188 212.046875 330.460938 L 137.144531 255.558594 C 133.757812 252.050781 133.855469 246.464844 137.363281 243.078125 C 140.785156 239.773438 146.207031 239.773438 149.628906 243.078125 L 218.289062 311.738281 L 361.851562 168.164062 C 365.238281 164.660156 370.828125 164.5625 374.332031 167.949219 C 377.839844 171.335938 377.9375 176.925781 374.550781 180.429688 C 374.476562 180.503906 374.40625 180.578125 374.332031 180.648438 L 224.53125 330.460938 C 222.875 332.117188 220.628906 333.046875 218.289062 333.046875 Z M 218.289062 333.046875 " style=" stroke:none;fill-rule:nonzero;fill:rgb(65.490196%,66.27451%,67.45098%);fill-opacity:1;" />
</g>
</svg>