<svg height="512" viewBox="0 0 64 64" width="512" xmlns="http://www.w3.org/2000/svg"><g id="Check_credit_card" data-name="Check credit card"><path d="m47 27a3.972 3.972 0 0 0 -3 1.38 4 4 0 1 0 0 5.24 3.993 3.993 0 1 0 3-6.62z" fill="none"/><path d="m17 13h-6a2 2 0 0 0 -2 2v4a2 2 0 0 0 2 2h6a2 2 0 0 0 2-2v-4a2 2 0 0 0 -2-2z" fill="none"/><path d="m47 27a3.972 3.972 0 0 0 -3 1.38 4 4 0 1 0 0 5.24 3.993 3.993 0 1 0 3-6.62z" fill="none"/><path d="m17 13h-6a2 2 0 0 0 -2 2v4a2 2 0 0 0 2 2h6a2 2 0 0 0 2-2v-4a2 2 0 0 0 -2-2z" fill="none"/><path d="m47 27a3.972 3.972 0 0 0 -3 1.38 4 4 0 1 0 0 5.24 3.993 3.993 0 1 0 3-6.62z" fill="none"/><path d="m41 13a9.942 9.942 0 0 1 2.014-6h-36.014a4 4 0 0 0 -4 4v26a4 4 0 0 0 4 4h14v-6a4 4 0 0 1 8 0v6h24a4 4 0 0 0 4-4v-16.014a9.986 9.986 0 0 1 -16-7.986zm-22 4v2a2 2 0 0 1 -2 2h-6a2 2 0 0 1 -2-2v-4a2 2 0 0 1 2-2h6a2 2 0 0 1 2 2zm28 18a3.972 3.972 0 0 1 -3-1.38 4 4 0 1 1 0-5.24 3.993 3.993 0 1 1 3 6.62z" fill="#9bc9ff"/><g fill="#1e81ce"><path d="m57 24a1 1 0 0 0 -1 1v12a3 3 0 0 1 -3 3h-23v-5a5 5 0 0 0 -10 0v5h-13a3 3 0 0 1 -3-3v-26a3 3 0 0 1 3-3h32a1 1 0 0 0 0-2h-32a5.006 5.006 0 0 0 -5 5v26a5.006 5.006 0 0 0 5 5h2.461l-2.561 5.771a5.024 5.024 0 0 0 .2 4.459l3.528 6.349a3.011 3.011 0 0 1 .372 1.458v.963a1 1 0 0 0 2 0v-.963a5.021 5.021 0 0 0 -.629-2.429l-3.528-6.349a3.018 3.018 0 0 1 -.119-2.676l2.926-6.583h8.35v7a1 1 0 0 0 2 0v-14a3 3 0 0 1 6 0v26a1 1 0 0 0 2 0v-14.54a5.969 5.969 0 0 0 4 1.54h3a1 1 0 0 0 1-1v-5h15a5.006 5.006 0 0 0 5-5v-12a1 1 0 0 0 -1-1zm-21 22h-2a4 4 0 0 1 -4-4h6z"/><path d="m51 2a11 11 0 1 0 11 11 11.013 11.013 0 0 0 -11-11zm0 20a9 9 0 1 1 9-9 9.01 9.01 0 0 1 -9 9z"/><path d="m55.364 9.222-6.364 6.364-2.293-2.293a1 1 0 0 0 -1.414 1.414l3 3a1 1 0 0 0 1.414 0l7.071-7.071a1 1 0 1 0 -1.414-1.414z"/><path d="m20 15a3 3 0 0 0 -3-3h-6a3 3 0 0 0 -3 3v4a3 3 0 0 0 3 3h6a3 3 0 0 0 3-3zm-2 0v1h-2v-2h1a1 1 0 0 1 1 1zm-8 4v-4a1 1 0 0 1 1-1h3v6h-3a1 1 0 0 1 -1-1zm7 1h-1v-2h2v1a1 1 0 0 1 -1 1z"/><path d="m28 15h2v4h-2z"/><path d="m32 15h2v4h-2z"/><path d="m24 15h2v4h-2z"/><path d="m36 15h2v4h-2z"/><path d="m41 36a4.95 4.95 0 0 0 2.988-1.016 5 5 0 1 0 0-7.968 4.95 4.95 0 0 0 -2.988-1.016 5 5 0 0 0 0 10zm9-5a2.982 2.982 0 0 1 -4.679 2.47 4.832 4.832 0 0 0 0-4.94 2.982 2.982 0 0 1 4.679 2.47zm-9-3a3 3 0 1 1 -3 3 3 3 0 0 1 3-3z"/><path d="m8 34h10v2h-10z"/><path d="m8 30h2v2h-2z"/><path d="m12 30h2v2h-2z"/><path d="m16 30h2v2h-2z"/><path d="m31 34h2v2h-2z"/><path d="m16 24h4v2h-4z"/><path d="m24 24h4v2h-4z"/><path d="m32 24h4v2h-4z"/></g></g></svg>