<?xml version="1.0"?>
<svg xmlns="http://www.w3.org/2000/svg" viewBox="0 0 64 64" width="512" height="512"><g id="Delivery-2" data-name="Delivery"><path d="M49,41H43V31H31V61H61V31H49ZM35,57h0Zm0-3h0Zm7,3h0Zm0-3h0Zm16,3H49V53h9Z" style="fill:#b1d5ff"/><path d="M61,30H34V21a7.009,7.009,0,0,0-7-7H9a7.009,7.009,0,0,0-7,7V33a1,1,0,0,0,2,0V21a5.006,5.006,0,0,1,5-5H27a5.006,5.006,0,0,1,5,5v9H31a1,1,0,0,0-1,1V61a1,1,0,0,0,1,1H61a1,1,0,0,0,1-1V31A1,1,0,0,0,61,30ZM48,32v8H44V32ZM60,60H32V32H42v9a1,1,0,0,0,1,1h6a1,1,0,0,0,1-1V32H60Z" style="fill:#1e81ce"/><path d="M39,56H35a1,1,0,0,0,0,2h4a1,1,0,0,0,0-2Z" style="fill:#1e81ce"/><path d="M39,53H35a1,1,0,0,0,0,2h4a1,1,0,0,0,0-2Z" style="fill:#1e81ce"/><path d="M43,53H42a1,1,0,0,0,0,2h1a1,1,0,0,0,0-2Z" style="fill:#1e81ce"/><path d="M43,56H42a1,1,0,0,0,0,2h1a1,1,0,0,0,0-2Z" style="fill:#1e81ce"/><path d="M27,20a1,1,0,0,0-1,1V34H10V21a1,1,0,0,0-2,0V35a1,1,0,0,0,1,1h1V61a1,1,0,0,0,2,0V36H24V61a1,1,0,0,0,2,0V36h1a1,1,0,0,0,1-1V21A1,1,0,0,0,27,20Z" style="fill:#1e81ce"/><path d="M24,8a6,6,0,1,0-6,6A6.006,6.006,0,0,0,24,8Zm-6,4a4,4,0,1,1,4-4A4,4,0,0,1,18,12Z" style="fill:#1e81ce"/><path d="M18,40a1,1,0,0,0-1,1V61a1,1,0,0,0,2,0V41A1,1,0,0,0,18,40Z" style="fill:#1e81ce"/><path d="M49,52a1,1,0,0,0-1,1v4a1,1,0,0,0,1,1h9a1,1,0,0,0,1-1V53a1,1,0,0,0-1-1Zm8,4H50V54h7Z" style="fill:#1e81ce"/></g></svg>
